<?xml version="1.0" encoding="UTF-8"?>
<svg width="333px" height="53px" viewBox="0 0 333 53" version="1.1" xmlns="http://www.w3.org/2000/svg" xmlns:xlink="http://www.w3.org/1999/xlink">
    <title>Provision-logo-vektor-beyazustune-_1_</title>
    <g id="Page-1" stroke="none" stroke-width="1" fill="none" fill-rule="evenodd">
        <g id="Group-3" transform="translate(-373.000000, -1765.000000)" fill-rule="nonzero">
            <g id="Provision-logo-vektor-beyazustune-_1_" transform="translate(373.000000, 1765.000000)">
                <g id="g14" transform="translate(166.500000, 26.500000) scale(-1, 1) rotate(-180.000000) translate(-166.500000, -26.500000) translate(-0.000000, 0.000000)">
                    <g id="g20" transform="translate(88.928811, 0.000000)" fill="#7B7B7B">
                        <path d="M7.76778163,19.1512978 C9.70215984,18.0945716 11.7826355,17.5684259 14.0120336,17.5684259 C18.6415459,17.5684259 20.9565038,20.8196431 20.9565038,27.3192551 C20.9565038,32.8447922 18.3973776,35.6073591 13.2762999,35.6073591 C11.0674846,35.6073591 9.23400238,35.4706822 7.76778163,35.1973284 L7.76778163,19.1512978 Z M0,40.6136046 C4.08548103,41.454228 8.4026193,41.8731287 12.9542399,41.8731287 C23.4094875,41.8731287 28.6363041,37.0015442 28.6363041,27.2611977 C28.6363041,16.5044426 23.7723095,11.1272745 14.0398809,11.1272745 C11.9690913,11.1272745 9.87852606,11.6175374 7.76778163,12.5891933 L7.76778163,0 L0,0 L0,40.6136046 Z" id="path22"></path>
                    </g>
                    <g id="g24" transform="translate(123.426123, 11.127113)" fill="#7B7B7B">
                        <path d="M0,0 L0,30.7446446 L6.01017323,30.7446446 L6.97716054,26.8229446 C9.67229462,29.4375456 12.5260372,30.7446446 15.5359669,30.7446446 L15.5359669,24.4780687 C12.6442873,24.4780687 10.0548923,23.2778116 7.77060672,20.8785069 L7.77060672,0 L0,0 Z" id="path26"></path>
                    </g>
                    <g id="g28" transform="translate(141.893926, 11.068854)" fill="#7B7B7B">
                        <path d="M15.2413505,5.91339307 C20.2264203,5.91339307 22.7149194,9.12429254 22.7149194,15.5481074 C22.7149194,21.8146832 20.2264203,24.9489791 15.2413505,24.9489791 C10.2562807,24.9489791 7.76778163,21.8146832 7.76778163,15.5481074 C7.76778163,9.12429254 10.2562807,5.91339307 15.2413505,5.91339307 M0,15.4299766 C0,25.7388023 5.07789414,30.8922073 15.2413505,30.8922073 C25.3995603,30.8922073 30.482701,25.7388023 30.482701,15.4299766 C30.482701,5.1437287 25.3995603,0 15.2413505,0 C5.12107763,0 0.040358402,5.1437287 0,15.4299766" id="path30"></path>
                    </g>
                    <g id="g32" transform="translate(174.575313, 11.129653)" fill="#7B7B7B">
                        <polygon id="path34" points="0 30.7434351 8.20889897 30.7434351 15.6820643 9.2496805 23.447828 30.7434351 31.6539019 30.7434351 19.1403757 0 11.7551918 0"></polygon>
                    </g>
                    <path d="M217.664566,11.1243313 L209.896381,11.1243313 L209.896381,41.8705886 L217.664566,41.8705886 L217.664566,11.1243313 Z M217.664566,46.8514339 L209.896381,46.8514339 L209.896381,52.9986695 L217.664566,52.9986695 L217.664566,46.8514339 Z" id="path36" fill="#7B7B7B"></path>
                    <g id="g38" transform="translate(223.525615, 10.832754)" fill="#7B7B7B">
                        <path d="M1.46339566,1.75865689 L1.46339566,8.20061465 C4.88417381,6.83384555 8.83082194,6.1520737 13.3069723,6.1520737 C16.6494552,6.1520737 18.3194858,7.22170156 18.3194858,9.37305258 C18.3194858,11.4211904 17.1955043,12.4452593 14.9491557,12.4452593 L9.3772747,12.4452593 C3.12575823,12.4452593 0,15.5202882 0,21.6711523 C0,28.1127069 4.56171018,31.3332826 13.6871485,31.3332826 C17.5559049,31.3332826 21.2006722,30.7458541 24.6214503,29.5758353 L24.6214503,23.1342807 C21.2006722,24.4994371 17.4881028,25.1824185 13.4829349,25.1824185 C9.27920379,25.1824185 7.18097047,24.1103715 7.18097047,21.9614396 C7.18097047,19.9133018 8.40019779,18.8880234 10.845917,18.8880234 L15.8257402,18.8880234 C22.6668929,18.8880234 26.0872675,15.8146072 26.0872675,9.66253347 C26.0872675,3.22057571 21.7273493,0 13.0119524,0 C8.73275103,0 4.88417381,0.586218963 1.46339566,1.75865689" id="path40"></path>
                    </g>
                    <path d="M262.801403,11.1243313 L255.033621,11.1243313 L255.033621,41.8705886 L262.801403,41.8705886 L262.801403,11.1243313 Z M262.801403,46.8514339 L255.033621,46.8514339 L255.033621,52.9986695 L262.801403,52.9986695 L262.801403,46.8514339 Z" id="path42" fill="#7B7B7B"></path>
                    <g id="g44" transform="translate(268.665075, 11.068854)" fill="#7B7B7B">
                        <path d="M15.238929,5.91339307 C20.2235952,5.91339307 22.7145158,9.12429254 22.7145158,15.5481074 C22.7145158,21.8146832 20.2235952,24.9489791 15.238929,24.9489791 C10.2562807,24.9489791 7.76536013,21.8146832 7.76536013,15.5481074 C7.76536013,9.12429254 10.2562807,5.91339307 15.238929,5.91339307 M0,15.4299766 C0,25.7388023 5.08031564,30.8922073 15.238929,30.8922073 C25.3995603,30.8922073 30.482701,25.7388023 30.482701,15.4299766 C30.482701,5.1437287 25.3995603,0 15.238929,0 C5.11825254,0 0.0375333139,5.1437287 0,15.4299766" id="path46"></path>
                    </g>
                    <g id="g48" transform="translate(305.008623, 11.127113)" fill="#7B7B7B">
                        <path d="M0,0 L0,30.7446446 L6.01017323,30.7446446 L6.97716054,26.2355161 C9.92695614,29.2424081 13.2892146,30.7446446 17.0599001,30.7446446 C24.3494347,30.7446446 27.9913769,26.9588151 27.9913769,19.3839307 L27.9913769,0 L20.2231917,0 L20.2231917,19.3839307 C20.2231917,22.7794852 18.5362105,24.4780687 15.1533692,24.4780687 C12.6317762,24.4780687 10.1711245,23.4725459 7.76576371,21.4635163 L7.76576371,0 L0,0 Z" id="path50"></path>
                    </g>
                    <g id="g52" transform="translate(0.000000, 0.496371)" fill="#5CCAEC">
                        <path d="M0,31.1041774 L2.99499701,34.0957488 C5.86649731,36.9643512 10.5182067,36.9643512 13.3901106,34.0957488 L42.3710755,5.14765967 L39.368814,2.14600893 C36.4997352,-0.71533631 31.8528688,-0.71533631 28.9890366,2.14600893 L0,31.1041774 Z" id="path54"></path>
                    </g>
                    <g id="g56" transform="translate(42.320890, 10.671685)" fill="#5CCAEC">
                        <path d="M31.1321686,42.3283152 L34.1396767,39.3262613 C37.0035089,36.4629001 37.0035089,31.8227392 34.1396767,28.9605876 L5.15104374,0 L2.15362523,2.99399038 C-0.717875076,5.86017375 -0.717875076,10.5075919 2.15362523,13.3761943 L31.1321686,42.3283152 Z" id="path58"></path>
                    </g>
                    <g id="g60" transform="translate(22.253461, 23.897051)" fill="#5CCAEC">
                        <path d="M0,11.9445138 L7.48850149,19.4254579 C10.3499122,22.2851905 14.9895141,22.2851905 17.8533463,19.4254579 L24.6266969,12.6589429 L11.9569838,0 L0,11.9445138 Z" id="path62"></path>
                    </g>
                </g>
            </g>
        </g>
    </g>
</svg>