<?xml version="1.0" encoding="UTF-8"?>
<svg width="512px" height="512px" viewBox="0 0 512 512" version="1.1" xmlns="http://www.w3.org/2000/svg" xmlns:xlink="http://www.w3.org/1999/xlink">
    <title>Group 2</title>
    <g id="Page-1" stroke="none" stroke-width="1" fill="none" fill-rule="evenodd">
        <g id="Group-2">
            <rect id="Rectangle" fill="#000000" x="0" y="0" width="512" height="512"></rect>
            <g id="Group" transform="translate(256.281198, 256.147840) scale(-1, 1) rotate(-180.000000) translate(-256.281198, -256.147840) translate(56.281198, 110.000000)" fill="#5CCAED" fill-rule="nonzero">
                <path d="M252.745983,291.064618 C200.086266,281.490124 159.799741,258.364038 137.336505,224.853309 C130.855309,215.205165 126.730911,206.809071 119.292266,188.691182 C108.465723,162.471798 107.655573,158.642001 107.729223,138.977463 C108.023823,102.005186 115.167869,69.2309567 127.688361,47.6515202 C135.200656,34.6891283 145.80625,23.1260855 155.675343,17.3813891 L160.60989,14.5090409 L130.634359,14.1407911 L100.658828,13.7725414 L98.670279,11.7839926 C95.7979308,8.83799447 95.8715808,5.08184682 99.0385288,2.28314857 L101.395327,0.147299908 L187.418473,0.147299908 C234.701744,0.147299908 279.039016,0.515549677 285.888462,0.883799447 C332.361583,3.53519779 358.875566,14.2144411 376.109655,37.0459268 C387.304448,51.9232175 395.037693,72.2506048 398.646541,96.2604897 C400.41414,108.265432 400.48779,131.317868 398.646541,143.02821 C386.788899,221.244461 344.219225,278.617776 289.20271,290.696368 C280.291065,292.684917 262.541426,292.832217 252.745983,291.064618 Z M285.225612,277.439376 C333.466332,268.233132 371.469708,217.782914 384.2848,145.974209 C388.335548,123.142723 386.420649,94.3455909 379.423903,73.2817041 C370.438609,46.399471 355.266718,30.270131 331.404133,22.2422861 C314.022744,16.4975897 300.250203,14.8772907 262.909676,14.361741 C222.991401,13.8461913 205.020812,15.1718905 185.503575,20.0327875 C170.331684,23.8625851 160.97814,28.9444319 151.698246,38.297976 C131.960058,58.1834636 121.943664,91.7678425 121.722715,138.240963 C121.649065,155.475053 121.722715,156.064252 123.637613,162.250848 C128.71946,178.453838 142.860251,208.944919 150.151597,219.255913 C159.505141,232.586554 175.045281,246.285446 191.395571,255.49169 C207.966811,264.918884 232.271295,273.314979 254.587231,277.365726 C262.246827,278.765075 278.155217,278.765075 285.225612,277.439376 Z" id="Shape"></path>
                <path d="M280.585665,250.262543 C278.670766,248.863194 277.197767,244.738797 277.860617,242.750248 C278.523466,240.908999 281.174865,238.036651 282.205964,238.036651 C283.752613,238.036651 296.494055,231.481805 301.207652,228.314857 C307.615198,223.96951 318.662691,213.069317 322.934389,206.88272 C328.089885,199.370425 332.140633,191.04798 334.865681,182.062686 C338.400879,170.499643 338.548179,170.205043 341.273227,169.026644 C344.145575,167.848245 346.281424,168.290145 348.638223,170.425993 C351.215971,172.856442 351.289621,175.21324 348.859172,183.903935 C344.219225,200.401525 335.454881,215.426115 323.449938,227.357408 C315.053844,235.753502 305.773949,242.381998 295.536606,247.316545 C287.656061,251.146343 283.089764,252.030142 280.585665,250.262543 Z" id="Path"></path>
                <path d="M3.36723868,13.0360418 C-0.462558923,10.9738431 -1.12540851,5.96564627 1.8942396,2.28314857 C3.29358873,0.515549677 3.44088863,0.515549677 19.9384783,0.294599816 L36.5833679,0.0736499539 L38.7928665,2.28314857 C41.5915647,5.08184682 41.8125146,8.76434451 39.2347662,11.7103427 L37.4671673,13.7725414 L21.3378274,13.9198413 C8.4490855,14.0671412 4.91388771,13.9198413 3.36723868,13.0360418 Z" id="Path"></path>
                <path d="M66.4115992,13.4779416 C63.8338508,12.3731923 62.2135518,9.94274378 62.2135518,6.99674562 C62.2135518,4.86089696 62.7291015,3.8297976 64.5703504,2.13584866 L66.9271489,0 L76.5016429,0.294599816 C85.928837,0.515549677 86.0761369,0.515549677 87.8437358,2.57774839 C90.7897339,5.96564627 89.6113347,11.4157429 85.5605872,13.2569917 C83.4247386,14.2880911 68.7683977,14.361741 66.4115992,13.4779416 Z" id="Path"></path>
            </g>
        </g>
    </g>
</svg>